<!--?xml version="1.0" encoding="utf-8"?-->
<!-- Generator: Adobe Illustrator 15.1.0, SVG Export Plug-In . SVG Version: 6.00 Build 0)  -->

<svg version="1.1" id="_x32_" xmlns="http://www.w3.org/2000/svg" xmlns:xlink="http://www.w3.org/1999/xlink" x="0px" y="0px" width="512px" height="512px" viewBox="0 0 512 512" style="width: 256px; height: 256px; opacity: 1;" xml:space="preserve">
<style type="text/css">

	.st0{fill:#4B4B4B;}

</style>
<g>
	<path class="st0" d="M367.781,37.656c-43.031,0-83.906,19.125-111.781,49.5c-27.875-30.375-68.75-49.5-111.781-49.5
		C64.688,37.656,0,103.156,0,183.656c0,54.234,20.469,189.531,210,274.703c10.906,4.922,31.719,13.109,32.328,13.344
		c4.359,1.766,8.953,2.641,13.672,2.641s9.313-0.875,13.672-2.641c0.609-0.234,21.422-8.422,32.328-13.344
		c189.531-85.172,210-220.469,210-274.703C512,103.156,447.313,37.656,367.781,37.656z M275.375,399.109
		c-4.797,2.172-12.672,5.422-19.375,8.109c-6.703-2.688-14.578-5.938-19.375-8.109C81.688,329.5,64.969,225.25,64.969,183.656
		c0-44.688,35.547-81.047,79.25-81.047c36.344,0,72.781,33.984,90.734,62.984c8.078,13.047,12.859,21.641,21.047,21.656
		c8.188-0.016,12.969-8.609,21.047-21.656c17.953-29,54.391-62.984,90.734-62.984c43.703,0,79.25,36.359,79.25,81.047
		C447.031,225.25,430.313,329.5,275.375,399.109z" style="fill: rgb(75, 75, 75);"></path>
</g>
</svg>
